#define 8191f4752c474b70edcdeb674ef4843appiDPOCUCTUBNVih_width 11
#define 8191f4752c474b70edcdeb674ef4843appiDPOCUCTUBNVih_height 11
static char 8191f4752c474b70edcdeb674ef4843appiDPOCUCTUBNVih_bits[] = {
  0x8C, 0x01, 0xDE, 0x03, 0xFE, 0x03, 0xFC, 0x01, 0x70, 0x00, 0xFC, 0x00, 
  0xFE, 0x01, 0xFE, 0x03, 0xFC, 0x03, 0xF8, 0x03, 0xF0, 0x00, };
