#define 87b839e6d2f04a10d688cccd0a93022djeaTbgZwUM6zHF3M_width 11
#define 87b839e6d2f04a10d688cccd0a93022djeaTbgZwUM6zHF3M_height 11
static char 87b839e6d2f04a10d688cccd0a93022djeaTbgZwUM6zHF3M_bits[] = {
  0x1C, 0x00, 0x7E, 0x00, 0xFF, 0x00, 0xFF, 0x01, 0xFF, 0x03, 0xFF, 0x07, 
  0xFF, 0x07, 0xFE, 0x07, 0xFC, 0x07, 0xFC, 0x03, 0xF0, 0x01, };
