#define 3390b81af62d4b44dc85cdb8d63527d0CB68jC9ILEElZXAQ_width 11
#define 3390b81af62d4b44dc85cdb8d63527d0CB68jC9ILEElZXAQ_height 11
static char 3390b81af62d4b44dc85cdb8d63527d0CB68jC9ILEElZXAQ_bits[] = {
  0x00, 0x00, 0x00, 0x00, 0x18, 0x00, 0x7C, 0x00, 0xFC, 0x00, 0xFC, 0x01, 
  0xF8, 0x01, 0xF8, 0x01, 0xE0, 0x00, 0x00, 0x00, 0x00, 0x00, };
